Coordinates
version=1
nRows=11
nColumns=36
inDegrees=yes

Units are S.I. units (second, meters, Newtons, ...)
If the header above contains a line with 'inDegrees', this indicates whether rotational values are in degrees (yes) or radians (no).

endheader
time	pelvis_tilt	pelvis_list	pelvis_rotation	pelvis_tx	pelvis_ty	pelvis_tz	hip_flexion_r	hip_adduction_r	hip_rotation_r	knee_angle_r	knee_angle_r_beta	ankle_angle_r	subtalar_angle_r	mtp_angle_r	hip_flexion_l	hip_adduction_l	hip_rotation_l	knee_angle_l	knee_angle_l_beta	ankle_angle_l	subtalar_angle_l	mtp_angle_l	lumbar_extension	lumbar_bending	lumbar_rotation	arm_flex_r	arm_add_r	arm_rot_r	elbow_flex_r	pro_sup_r	arm_flex_l	arm_add_l	arm_rot_l	elbow_flex_l	pro_sup_l
      6.56000000	    -23.97171423	     -2.71088270	     -5.32335020	     -0.32284769	      0.71038554	     -0.62000472	     85.22799994	     -8.75570107	     -2.91904595	     94.92817599	      1.65680922	     36.88330791	      0.84918151	     -7.49999987	     88.23992483	    -26.64212839	     -0.10635327	     97.14400433	      1.69548272	     37.80315575	      7.70531249	     -7.49999987	    -26.41838577	      7.90696905	      1.74931424	      7.96613333	    -13.04051611	    -14.00484483	     63.48071891	    101.01149037	      0.59131471	     -9.37025120	    -22.72133724	     62.95166746	     86.26691003
      6.57000000	    -24.00037195	     -2.66416142	     -5.33513444	     -0.32313515	      0.71186154	     -0.62027497	     85.12889154	     -8.70260777	     -2.84545094	     94.64377383	      1.65184547	     36.70300476	      0.75420601	     -7.49999987	     88.05980183	    -26.55280067	     -0.23585102	     96.87364053	      1.69076399	     37.73687244	      7.60055681	     -7.49999987	    -26.40862260	      7.95789943	      1.82450225	      7.85928089	    -13.06129754	    -14.08676805	     63.50445573	    101.63235375	      0.59596024	     -9.38324228	    -22.58499932	     62.73981074	     87.13140814
      6.58000000	    -24.03625887	     -2.59520552	     -5.32586309	     -0.32337229	      0.71335545	     -0.62062945	     85.03982430	     -8.70428079	     -2.77353567	     94.37277616	      1.64711567	     36.58627798	      0.67407565	     -7.49999987	     87.88779491	    -26.46811331	     -0.41027022	     96.61307432	      1.68621625	     37.60226571	      7.51602339	     -7.49999987	    -26.36797095	      7.98857202	      1.79856469	      7.83529182	    -13.09031175	    -14.01004575	     63.38745811	    101.70822769	      0.53330684	     -9.32967514	    -22.62312693	     62.71672226	     87.01631381
      6.59000000	    -24.10444770	     -2.55547611	     -5.34156693	     -0.32359461	      0.71488029	     -0.62096038	     84.96071425	     -8.66877310	     -2.73190511	     94.06632908	      1.64176716	     36.41817783	      0.62148814	     -7.49999987	     87.76059274	    -26.45721550	     -0.59027521	     96.34897747	      1.68160689	     37.51205284	      7.51388217	     -7.49999987	    -26.30156103	      8.04940674	      1.83062129	      7.78926449	    -13.05860637	    -14.08581312	     63.31481422	    101.65097551	      0.48283474	     -9.30283417	    -22.59025243	     62.65901864	     86.73939634
      6.60000000	    -24.13633593	     -2.57882217	     -5.38361234	     -0.32377360	      0.71655667	     -0.62129751	     84.79452283	     -8.56881484	     -2.73184724	     93.71848811	      1.63569619	     36.24636547	      0.51655835	     -7.49999987	     87.61721371	    -26.48427481	     -0.70398689	     96.08972983	      1.67708216	     37.42074464	      7.50821720	     -7.49999987	    -26.28458428	      8.17394118	      1.91244463	      7.72335922	    -13.06344739	    -14.10956437	     63.27203942	    101.81021740	      0.44023675	     -9.24708830	    -22.60448117	     62.56975958	     86.52848339
      6.61000000	    -24.27531484	     -2.58461152	     -5.41044345	     -0.32397968	      0.71816145	     -0.62170222	     84.74177264	     -8.50094985	     -2.73702849	     93.35831260	      1.62940994	     36.05473940	      0.37178314	     -7.49999987	     87.56429351	    -26.44583623	     -0.82252765	     95.79126440	      1.67187296	     37.25781381	      7.35538897	     -7.49999987	    -26.13087823	      8.27771766	      2.04071676	      7.51021689	    -13.19966601	    -13.64574795	     63.72553005	     95.16881991	      0.43938286	     -9.18670162	    -22.39369130	     62.97309732	     81.95726905
      6.62000000	    -24.26515349	     -2.61166167	     -5.42736496	     -0.32411905	      0.72004116	     -0.62219979	     84.52496030	     -8.49755095	     -2.78940767	     93.00807229	      1.62329709	     35.89766231	      0.32251306	     -7.49999987	     87.32991467	    -26.38376608	     -0.92264030	     95.48449070	      1.66651875	     37.15705801	      7.23525843	     -7.49999987	    -26.16898354	      8.40710966	      2.08197769	      7.42117647	    -13.31162758	    -13.38925438	     63.94505155	     92.51585636	      0.40316719	     -9.09752286	    -22.38569823	     63.09719215	     80.06236850
      6.63000000	    -24.28849684	     -2.62422080	     -5.49138553	     -0.32425995	      0.72198927	     -0.62255113	     84.33835709	     -8.46053231	     -2.86168905	     92.62765718	      1.61665760	     35.69170509	      0.25874847	     -7.49999987	     87.08786881	    -26.36317292	     -1.04972928	     95.14072834	      1.66051896	     37.04656361	      7.02231896	     -7.49999987	    -26.16763370	      8.49529115	      2.12614391	      7.38206279	    -13.28015921	    -13.23942741	     64.07262934	     90.04286111	      0.33205767	     -9.04257313	    -22.34661359	     63.23956665	     78.34817673
      6.64000000	    -24.23994393	     -2.68876379	     -5.51378355	     -0.32426407	      0.72418936	     -0.62298465	     84.02596383	     -8.45180879	     -2.96504883	     92.23641087	      1.60982906	     35.51675928	      0.41036653	     -7.49999987	     86.77561803	    -26.31233675	     -1.09964513	     94.78598348	      1.65432750	     37.07523180	      7.13913873	     -7.49999987	    -26.22553780	      8.65454726	      1.98401988	      7.61809890	    -13.12936131	    -13.71396034	     62.82230778	    101.88770555	      0.21751409	     -8.90246933	    -22.88557261	     62.33352936	     85.43507028
      6.65000000	    -24.29291848	     -2.69099524	     -5.56708827	     -0.32427995	      0.72629507	     -0.62336594	     83.83831183	     -8.40352011	     -3.00412564	     91.82026603	      1.60256596	     35.41464015	      0.46457966	     -7.49999987	     86.54681007	    -26.28734739	     -1.23384732	     94.42469377	      1.64802180	     37.03957391	      7.14384605	     -7.49999987	    -26.15972260	      8.73849780	      2.03326770	      7.53242770	    -13.10413647	    -13.71201161	     62.77677999	    101.88477434	      0.14654361	     -8.84286217	    -22.86686398	     62.29922308	     85.44259739
      6.66000000	    -24.19773079	     -2.66142573	     -5.62996383	     -0.32417528	      0.72882352	     -0.62376510	     83.49772181	     -8.35874232	     -3.00649663	     91.39701312	      1.59517881	     35.11964255	      0.45354646	     -7.49999987	     86.10098642	    -26.29057509	     -1.46448105	     94.03971246	      1.64130261	     36.93098309	      7.04583128	     -7.49999987	    -26.23966088	      8.76636882	      2.10536508	      7.47316534	    -13.09351249	    -13.68244048	     62.61503249	    101.88783815	      0.20049774	     -8.78311996	    -22.83572581	     62.08856397	     85.44285260
